<?xml version="1.0" encoding="UTF-8"?>
<svg width="92px" height="19px" viewBox="0 0 92 19" version="1.1" xmlns="http://www.w3.org/2000/svg" xmlns:xlink="http://www.w3.org/1999/xlink">
    <!-- Generator: Sketch 50.2 (55047) - http://www.bohemiancoding.com/sketch -->
    <title>evercoin-logo-w</title>
    <desc>Created with Sketch.</desc>
    <defs></defs>
    <g id="Page-1" stroke="none" stroke-width="1" fill="none" fill-rule="evenodd">
        <g id="Artboard" transform="translate(-8.000000, -9.000000)" fill="#FFFFFF" fill-rule="nonzero">
            <g id="evercoin-logo-w" transform="translate(8.000000, 9.000000)">
                <g id="evercoin" transform="translate(0.000000, 0.500000)">
                    <path d="M32.8351487,12.5576665 L30.0665514,12.9067731 C30.3741561,14.6873324 31.4857438,15.4847042 32.8449353,15.4847042 C34.1524934,15.4847042 34.8980958,14.9700947 35.29843,14.1522121 L38.7214681,14.1522121 C37.9382567,16.4644249 35.9552319,18.0941679 32.9559551,18.0941679 C29.8069179,18.0941679 27.5789531,16.2126008 27.0108836,13.2920779 L25.0329429,13.5414866 L26.2559446,11.4872279 L26.8762725,11.4011805 C27.0288442,7.82636581 29.4411189,5.43549287 33.2330997,5.43549287 C34.585813,5.43549287 35.7698865,5.8597396 36.7133047,6.58242041 L35.2552622,9.11199695 C34.6455714,8.5220062 33.8990633,8.1004771 33.3437955,8.1004771 C32.255777,8.1004771 30.362658,8.23393984 30.0318537,10.9634603 L34.0677768,10.4036268 L32.8351487,12.5576665 Z M43.4812391,8.00007935 C43.939318,7.21691211 44.5451553,6.59999246 45.2987691,6.14930188 C46.0523828,5.69861131 46.8946444,5.4732694 47.825579,5.4732694 L47.825579,8.82018433 L46.916814,8.82018433 C44.6264193,8.82018433 43.4812391,9.88409367 43.4812391,12.0119443 L43.4812391,17.9299992 L40.3559742,17.9299992 L40.3559742,5.65058939 L43.4812391,5.65058939 L43.4812391,8.00007935 Z M54.1935339,5.4954344 C55.7746451,5.4954344 57.0934494,5.92395344 58.1499863,6.78100437 C59.2065232,7.63805531 59.8677724,8.80540028 60.1337538,10.2830743 L56.8311688,10.2830743 C56.6981782,9.63289773 56.3952595,9.11941371 55.9224038,8.74260683 C55.4495481,8.36579996 54.8510991,8.17739935 54.1270389,8.17739935 C53.2995414,8.17739935 52.6087392,8.48401211 52.0546114,9.09724683 C51.5004836,9.71048155 51.2234239,10.6081551 51.2234239,11.7902943 C51.2234239,12.9724335 51.5004836,13.870107 52.0546114,14.4833417 C52.6087392,15.0965764 53.2995414,15.4031892 54.1270389,15.4031892 C54.8510991,15.4031892 55.4495481,15.2147886 55.9224038,14.8379817 C56.3952595,14.4611748 56.6981782,13.9476908 56.8311688,13.2975142 L60.1337538,13.2975142 C59.8677724,14.7751883 59.2065232,15.9425332 58.1499863,16.7995842 C57.0934494,17.6566351 55.7746451,18.0851542 54.1935339,18.0851542 C52.9966179,18.0851542 51.9327086,17.8302592 51.0017739,17.3204617 C50.0708393,16.8106641 49.3467899,16.0829206 48.829604,15.1372092 C48.3124181,14.1914978 48.053829,13.0758707 48.053829,11.7902943 C48.053829,10.5047179 48.3124181,9.38539659 48.829604,8.43229684 C49.3467899,7.47919709 50.0708393,6.75145355 51.0017739,6.24904438 C51.9327086,5.74663521 52.9966179,5.4954344 54.1935339,5.4954344 Z M67.1444936,5.4954344 C68.3414096,5.4954344 69.4164013,5.74663521 70.369501,6.24904438 C71.3226008,6.75145355 72.0725091,7.47919709 72.6192485,8.43229684 C73.1659879,9.38539659 73.4393535,10.5047179 73.4393535,11.7902943 C73.4393535,13.0758707 73.1659879,14.1914978 72.6192485,15.1372092 C72.0725091,16.0829206 71.3226008,16.8106641 70.369501,17.3204617 C69.4164013,17.8302592 68.3414096,18.0851542 67.1444936,18.0851542 C65.9475776,18.0851542 64.8725859,17.8302592 63.9194862,17.3204617 C62.9663864,16.8106641 62.2164781,16.0829206 61.6697387,15.1372092 C61.1229993,14.1914978 60.8496337,13.0758707 60.8496337,11.7902943 C60.8496337,10.5047179 61.1229993,9.38539659 61.6697387,8.43229684 C62.2164781,7.47919709 62.9663864,6.75145355 63.9194862,6.24904438 C64.8725859,5.74663521 65.9475776,5.4954344 67.1444936,5.4954344 Z M67.1444936,8.19956434 C66.2726659,8.19956434 65.53384,8.50617711 64.9279936,9.11941183 C64.3221473,9.73264655 64.0192286,10.6229318 64.0192286,11.7902943 C64.0192286,12.9576568 64.3221473,13.847942 64.9279936,14.4611767 C65.53384,15.0744114 66.2726659,15.3810242 67.1444936,15.3810242 C68.0163213,15.3810242 68.7551472,15.0744114 69.3609935,14.4611767 C69.9668399,13.847942 70.2697585,12.9576568 70.2697585,11.7902943 C70.2697585,10.6229318 69.9668399,9.73264655 69.3609935,9.11941183 C68.7551472,8.50617711 68.0163213,8.19956434 67.1444936,8.19956434 Z M74.4212134,2.12635446 C74.4212134,1.62394529 74.5985316,1.2138969 74.9531734,0.896196983 C75.3078152,0.578497067 75.7732755,0.419649492 76.3495684,0.419649492 C76.9258613,0.419649492 77.3913216,0.578497067 77.7459634,0.896196983 C78.1006051,1.2138969 78.2779233,1.62394529 78.2779233,2.12635446 C78.2779233,2.61398689 78.1006051,3.01664702 77.7459634,3.33434694 C77.3913216,3.65204685 76.9258613,3.81089443 76.3495684,3.81089443 C75.7732755,3.81089443 75.3078152,3.65204685 74.9531734,3.33434694 C74.5985316,3.01664702 74.4212134,2.61398689 74.4212134,2.12635446 Z M77.9011184,5.65058939 L77.9011184,17.9299992 L74.7758534,17.9299992 L74.7758534,5.65058939 L77.9011184,5.65058939 Z M87.1726882,5.4732694 C88.5912552,5.4732694 89.7216589,5.93872973 90.5639331,6.86966437 C91.4062073,7.80059901 91.8273381,9.10832091 91.8273381,10.7928693 L91.8273381,17.9299992 L88.7242381,17.9299992 L88.7242381,11.1475093 C88.7242381,10.1722444 88.4730373,9.41494785 87.9706281,8.87559683 C87.468219,8.33624581 86.7811109,8.06657435 85.9092832,8.06657435 C85.0226788,8.06657435 84.3134059,8.35471646 83.7814432,8.93100933 C83.2494806,9.5073022 82.9835032,10.3347872 82.9835032,11.4134893 L82.9835032,17.9299992 L79.8582383,17.9299992 L79.8582383,5.65058939 L82.9835032,5.65058939 L82.9835032,8.11090435 C83.3085915,7.28340689 83.8442403,6.6369342 84.5904657,6.17146688 C85.3366911,5.70599956 86.1974233,5.4732694 87.1726882,5.4732694 Z M19.9746816,14.8047342 L23.0777815,5.65058939 L26.4025314,5.65058939 L21.8587065,17.9299992 L18.0463266,17.9299992 L13.5025017,5.65058939 L16.8494166,5.65058939 L19.9746816,14.8047342 Z M8.45707832,12.5361047 L5.67822137,12.8865049 C5.98629815,14.6657034 7.0975719,15.462496 8.45626961,15.462496 C9.76382777,15.462496 10.5094303,14.9478865 10.9097643,14.1300039 L14.3420406,14.1300039 C13.5588291,16.4422167 11.5758044,18.0719597 8.57652763,18.0719597 C5.42777721,18.0719597 3.19993136,16.1907353 2.6316113,13.2706676 L0.109998322,13.5192784 L1.88300003,11.4650197 L2.49680646,11.3798769 C2.64900976,7.80456097 5.06137154,5.41328467 8.8536722,5.41328467 C10.1996726,5.41328467 11.3787029,5.83333117 12.3198141,6.54947526 L10.8595215,9.08295579 C10.2511385,8.49654605 9.50825165,8.07826889 8.95512984,8.07826889 C7.86681675,8.07826889 5.97296706,8.21180393 5.64291962,10.9434701 L9.68966616,10.3821352 L8.45707832,12.5361047 Z" id="Combined-Shape"></path>
                </g>
            </g>
        </g>
    </g>
</svg>