<?xml version="1.0" encoding="UTF-8"?>
<svg width="142px" height="28px" viewBox="0 0 142 28" version="1.1" xmlns="http://www.w3.org/2000/svg" xmlns:xlink="http://www.w3.org/1999/xlink">
    <!-- Generator: Sketch 52.5 (67469) - http://www.bohemiancoding.com/sketch -->
    <title>evercoin-logo</title>
    <desc>Created with Sketch.</desc>
    <defs>
        <linearGradient x1="1.72254642e-14%" y1="-1.11022302e-14%" x2="100%" y2="100%" id="linearGradient-1">
            <stop stop-color="#05B068" offset="0%"></stop>
            <stop stop-color="#11B89A" offset="100%"></stop>
        </linearGradient>
    </defs>
    <g id="Page-1" stroke="none" stroke-width="1" fill="none" fill-rule="evenodd">
        <g id="evercoin-logo" fill="url(#linearGradient-1)" fill-rule="nonzero">
            <path d="M50.7631042,19.3727087 L46.4828558,19.9112753 C46.9584124,22.6581437 48.6769256,23.888249 50.7782341,23.888249 C52.7997177,23.888249 53.9524182,23.0943609 54.5713343,21.8326137 L59.8633475,21.8326137 C58.6525035,25.3996638 55.5867494,27.9138679 50.9498707,27.9138679 C46.0814626,27.9138679 42.6370314,25.0111747 41.7587966,20.5056849 L38.7009024,20.8904476 L40.5916617,17.7213433 L41.550688,17.588598 C41.7865637,12.0737324 45.5159377,8.38533335 51.3783359,8.38533335 C53.4696293,8.38533335 55.3002056,9.03981867 56.758729,10.1546981 L54.504597,14.0570752 C53.5620157,13.1468966 52.4079149,12.4966038 51.5494715,12.4966038 C49.8673961,12.4966038 46.9406363,12.7024967 46.4292131,16.9133271 L52.6687458,16.0496722 L50.7631042,19.3727087 Z M67.2219483,12.3417202 C67.9301379,11.1335283 68.8667616,10.1818066 70.0318477,9.48652634 C71.1969337,8.79124612 72.4990692,8.44361119 73.9382931,8.44361119 L73.9382931,13.606896 L72.5333434,13.606896 C68.9923957,13.606896 67.2219483,15.2481886 67.2219483,18.5308231 L67.2219483,27.6606048 L62.3902921,27.6606048 L62.3902921,8.7171627 L67.2219483,8.7171627 L67.2219483,12.3417202 Z M83.7831443,8.47780513 C86.2275409,8.47780513 88.2664109,9.13888131 89.8998157,10.4610536 C91.5332204,11.7832258 92.5555107,13.5840886 92.9667181,15.8636959 L87.8609252,15.8636959 C87.655322,14.8606687 87.1870094,14.068517 86.4559755,13.4872172 C85.7249408,12.9059173 84.7997396,12.6152717 83.6803431,12.6152717 C82.401033,12.6152717 81.3330534,13.0882832 80.4763726,14.0343202 C79.6196917,14.9803572 79.1913576,16.3651978 79.1913576,18.1888837 C79.1913576,20.0125696 79.6196917,21.3974103 80.4763726,22.3434473 C81.3330534,23.2894843 82.401033,23.7624958 83.6803431,23.7624958 C84.7997396,23.7624958 85.7249408,23.4718502 86.4559755,22.8905503 C87.1870094,22.3092505 87.655322,21.5170988 87.8609252,20.5140715 L92.9667181,20.5140715 C92.5555107,22.7936789 91.5332204,24.5945417 89.8998157,25.9167139 C88.2664109,27.2388861 86.2275409,27.8999624 83.7831443,27.8999624 C81.9327136,27.8999624 80.2879109,27.506736 78.8486869,26.7202715 C77.409463,25.9338069 76.2900834,24.8111172 75.4905146,23.3521685 C74.6909457,21.8932198 74.2911672,20.1721421 74.2911672,18.1888837 C74.2911672,16.2056253 74.6909457,14.4788487 75.4905146,13.008502 C76.2900834,11.5381553 77.409463,10.4154655 78.8486869,9.64039907 C80.2879109,8.86533259 81.9327136,8.47780513 83.7831443,8.47780513 Z M103.805314,8.47780513 C105.655745,8.47780513 107.317681,8.86533259 108.791172,9.64039907 C110.264663,10.4154655 111.424021,11.5381553 112.269279,13.008502 C113.114538,14.4788487 113.53716,16.2056253 113.53716,18.1888837 C113.53716,20.1721421 113.114538,21.8932198 112.269279,23.3521685 C111.424021,24.8111172 110.264663,25.9338069 108.791172,26.7202715 C107.317681,27.506736 105.655745,27.8999624 103.805314,27.8999624 C101.954884,27.8999624 100.292947,27.506736 98.8194564,26.7202715 C97.3459649,25.9338069 96.1866072,24.8111172 95.3413492,23.3521685 C94.4960904,21.8932198 94.0734678,20.1721421 94.0734678,18.1888837 C94.0734678,16.2056253 94.4960904,14.4788487 95.3413492,13.008502 C96.1866072,11.5381553 97.3459649,10.4154655 98.8194564,9.64039907 C100.292947,8.86533259 101.954884,8.47780513 103.805314,8.47780513 Z M103.805314,12.6494656 C102.457469,12.6494656 101.315245,13.1224771 100.378608,14.0685141 C99.4419699,15.0145512 98.9736582,16.3879939 98.9736582,18.1888837 C98.9736582,19.9897735 99.4419699,21.3632163 100.378608,22.3092534 C101.315245,23.2552904 102.457469,23.7283018 103.805314,23.7283018 C105.153159,23.7283018 106.295383,23.2552904 107.23202,22.3092534 C108.168658,21.3632163 108.63697,19.9897735 108.63697,18.1888837 C108.63697,16.3879939 108.168658,15.0145512 107.23202,14.0685141 C106.295383,13.1224771 105.153159,12.6494656 103.805314,12.6494656 Z M115.055115,3.28032644 C115.055115,2.50525995 115.329249,1.87267841 115.877524,1.38256284 C116.4258,0.892447267 117.145402,0.647393156 118.03635,0.647393156 C118.927298,0.647393156 119.646899,0.892447267 120.195175,1.38256284 C120.74345,1.87267841 121.017584,2.50525995 121.017584,3.28032644 C121.017584,4.03259685 120.74345,4.65378053 120.195175,5.1438961 C119.646899,5.63401168 118.927298,5.87906578 118.03635,5.87906578 C117.145402,5.87906578 116.4258,5.63401168 115.877524,5.1438961 C115.329249,4.65378053 115.055115,4.03259685 115.055115,3.28032644 Z M120.435044,8.7171627 L120.435044,27.6606048 L115.603388,27.6606048 L115.603388,8.7171627 L120.435044,8.7171627 Z M134.768881,8.44361119 C136.961984,8.44361119 138.709587,9.1616767 140.011742,10.5978294 C141.313897,12.033982 141.964964,14.0514042 141.964964,16.6501565 L141.964964,27.6606048 L137.167576,27.6606048 L137.167576,17.1972595 C137.167576,15.6927187 136.779219,14.5244375 136.002496,13.6923808 C135.225771,12.8603241 134.163503,12.444302 132.815659,12.444302 C131.444969,12.444302 130.348434,12.8888188 129.52602,13.7778656 C128.703606,14.6669125 128.292406,15.9434735 128.292406,17.6075868 L128.292406,27.6606048 L123.46075,27.6606048 L123.46075,8.7171627 L128.292406,8.7171627 L128.292406,12.5126899 C128.794991,11.2361098 129.623104,10.2387966 130.776768,9.52072028 C131.930431,8.80264399 133.261123,8.44361119 134.768881,8.44361119 Z M30.8808359,22.8392594 L35.6782251,8.7171627 L40.8182848,8.7171627 L33.7935365,27.6606048 L27.8996013,27.6606048 L20.8748529,8.7171627 L26.0491797,8.7171627 L30.8808359,22.8392594 Z M13.0746338,19.3394452 L8.77852401,19.8800076 C9.25481046,22.6247766 10.9728384,23.8539883 13.0733836,23.8539883 C15.0948671,23.8539883 16.2475677,23.0601003 16.8664837,21.7983531 L22.1727791,21.7983531 C20.9619351,25.3654031 17.896181,27.8796073 13.2593024,27.8796073 C8.39133765,27.8796073 4.94709039,24.9774428 4.06846821,20.4726552 L0.170057285,20.856187 L2.91111601,17.6870827 L3.86006006,17.5557329 C4.09536621,12.040094 7.82487488,8.35107277 13.6877676,8.35107277 C15.7686828,8.35107277 17.5914623,8.99907841 19.0464193,10.1038736 L16.7888084,14.0122734 C15.8482489,13.1076192 14.6997467,12.4623432 13.8446209,12.4623432 C12.1620901,12.4623432 9.23420056,12.6683477 8.72394763,16.8824883 L14.9802133,16.0165172 L13.0746338,19.3394452 Z" id="Combined-Shape"></path>
        </g>
    </g>
</svg>